# xmcd
#
# Track frame offsets:
#	151
#	19270
#	34485
#	49830
#	61899
#	76366
#	87153
#	102080
#	114405
#	130636
#	144227
#	155228
#	168297
#	185936
#	200233
#	212884
#	227149
#	238712
#	253261
#	267662
#	281977
#	294578
#	305511
#	320358
#	333841
#
# Disc length: 4662 seconds
#
# Revision: 0
# Processed by: cddbd v1.4PL0 Copyright (c) Steve Scherf et al.
# Submitted via: dBpowerAMP V4.0
#
DISCID=82123419
DTITLE=vicente fernandez - historia de un idolo vol 1
DYEAR=1900
DGENRE=
TTITLE0=lastima que seas ajena
TTITLE1=la ley del monte
TTITLE2=aunque mal paguen ellas
TTITLE3=el hijo del pueblo
TTITLE4=aca entre nos
TTITLE5=ni en defensa propia
TTITLE6=que de raro tiene
TTITLE7=me voy a quitar de en medio
TTITLE8=hoy platique con mi gallo
TTITLE9=nos estorbo la ropa
TTITLE10=palabra de rey
TTITLE11=las llaves de mi alma
TTITLE12=por tu maldito amor
TTITLE13=mi viejo
TTITLE14=la diferencia
TTITLE15=mujeres divinas
TTITLE16=hermoso cariño
TTITLE17=para que no te vayas
TTITLE18=dejame
TTITLE19=la tienda
TTITLE20=el ayudante
TTITLE21=borracho te recuerdo
TTITLE22=camino de guanajuato
TTITLE23=botas de charro
TTITLE24=aunque pasen los años
EXTD=
EXTT0=
EXTT1=
EXTT2=
EXTT3=
EXTT4=
EXTT5=
EXTT6=
EXTT7=
EXTT8=
EXTT9=
EXTT10=
EXTT11=
EXTT12=
EXTT13=
EXTT14=
EXTT15=
EXTT16=
EXTT17=
EXTT18=
EXTT19=
EXTT20=
EXTT21=
EXTT22=
EXTT23=
EXTT24=
PLAYORDER=
